<svg xmlns="http://www.w3.org/2000/svg" width="32" height="32"><path fill="#60A569" d="M19.406 8c.452.284.739.866 1 1.313l.041.07a9.875 9.875 0 0 1 .432.827l.037.078c.066.147.11.267.084.432-.096.116-.271.148-.41.193-.894.304-1.682.79-2.402 1.4l-.073.061c-.672.585-1.638 1.613-1.747 2.533a.836.836 0 0 0 .18.588c.221.204.46.28.759.269.242-.034.403-.143.556-.328.072-.098.124-.204.178-.313.648-1.269 1.882-2.248 3.211-2.723a.704.704 0 0 1 .25-.025c.155.269.132.568.133.87l.002.201c.006.781-.198 1.759-.744 2.346-.177.162-.377.296-.574.431a7.405 7.405 0 0 0-.785.653l-.089.079a7.633 7.633 0 0 0-1.039 1.139l-.049.065a9.9 9.9 0 0 0-1.326 2.372l-.037.095a11.185 11.185 0 0 0-.636 2.392c-.019.1-.049.197-.077.294h-.844a1.372 1.372 0 0 1-.095-.339l-.017-.109-.018-.117a10.196 10.196 0 0 0-.857-2.783 19.375 19.375 0 0 1-.124-.265 8.403 8.403 0 0 0-1.484-2.196c-.055-.06-.107-.122-.159-.184-.376-.431-.838-.801-1.299-1.137-.322-.234-.606-.442-.79-.807l-.039-.074c-.618-1.246-.484-2.773-.055-4.051.522-1.528.522-1.528 1.031-2.063.575.204.98 1.128 1.232 1.647.287.61.512 1.259.654 1.918.02.092.043.184.066.276.125.536.123 1.06.11 1.607l-.002.092-.005.172c-.005.25.056.458.23.644.212.185.423.231.701.219a.833.833 0 0 0 .542-.249c.174-.225.191-.482.215-.756a8.971 8.971 0 0 1 1.005-3.416l.066-.124c.218-.417.475-.803.748-1.186l.044-.062c.183-.254.39-.48.606-.706a3.688 3.688 0 0 0 .184-.208c.058-.069.113-.128.181-.186l.065-.055.077-.064.092-.079c.828-.711.828-.711 1.064-.671"/><path fill="#4A9960" d="m26.572 15.832.09-.003c.184 0 .347.02.494.139.098.126.107.238.105.392v.069l-.002.222-.001.077c-.015 2.029-.572 4.063-1.741 5.732a34.875 34.875 0 0 0-.133.191 8.422 8.422 0 0 1-1.946 1.974l-.066.049c-.317.234-.646.44-.991.632a14.813 14.813 0 0 0-.181.103c-.769.429-1.612.716-2.463.929l-.071.018c-1.184.295-1.184.295-1.696.238-.07-.105-.07-.139-.07-.262v-.104l.001-.112v-.115l.002-.365.001-.247.003-.606.091-.028c.63-.198 1.231-.411 1.815-.722l.08-.042c.579-.305 1.143-.663 1.6-1.137.062-.063.124-.119.192-.175.424-.365 1.044-.992 1.105-1.562a.898.898 0 0 0-.205-.643c-.209-.165-.427-.271-.697-.264-.264.035-.424.183-.586.384a22.281 22.281 0 0 0-.076.1l-.083.109a25.156 25.156 0 0 0-.138.183c-.286.371-.634.7-1.005.983l-.076.059c-.532.405-1.192.825-1.861.941.219-1.778 1.168-3.402 2.375-4.688l.058-.062c.129-.134.27-.25.415-.366a7.688 7.688 0 0 0 .168-.139c1.503-1.277 3.548-1.852 5.494-1.882m-18.385.512.067.022c1.127.375 2.135 1.044 2.995 1.853l.058.054c.134.129.25.27.366.415.065.08.133.158.201.236.815.933 1.293 2.129 1.619 3.309l.029.102c.057.212.09.415.102.634-.181-.019-.335-.086-.5-.158l-.088-.038c-1.016-.448-1.879-1.209-2.525-2.105-.169-.231-.296-.356-.574-.449a.887.887 0 0 0-.658.172.86.86 0 0 0-.292.543c-.02.511.324.928.653 1.29l.187.196a6.313 6.313 0 0 1 .142.155c.193.216.393.405.624.582l.096.077c.239.189.488.357.747.517l.059.037c.691.429 1.415.718 2.194.943.06.019.06.019.091.05a4.7 4.7 0 0 1 .039.604l.001.09.001.187.002.191.002.278.002.086a.548.548 0 0 1-.069.317c-.108.09-.18.076-.315.069a7.037 7.037 0 0 1-.541-.076l-.061-.01a13.6 13.6 0 0 1-1.217-.267l-.082-.022a9.627 9.627 0 0 1-3.668-1.915l-.1-.083a5.663 5.663 0 0 1-.829-.831 4.718 4.718 0 0 0-.221-.246c-.672-.733-1.182-1.702-1.537-2.622l-.026-.067a10.295 10.295 0 0 1-.537-2.214l-.014-.103a12.072 12.072 0 0 1-.093-1.459l-.001-.077-.001-.216-.001-.065c.002-.155.046-.241.142-.361.642-.582 2.834.143 3.531.375"/><path fill="#67A96D" d="M16.969 5.719a14.156 14.156 0 0 1 .375.281l.054.042c.66.508.66.508.727.708-.166.156-.34.295-.523.43a6.276 6.276 0 0 0-.615.524 8.58 8.58 0 0 1-.199.182c-.16.144-.306.292-.443.458l-.12.14c-.196.229-.384.464-.567.704l-.075.096c-.225.302-.408.627-.594.955a8.759 8.759 0 0 0-.056.099q-.059.103-.116.207l-.058.103-.052.093c-.051.072-.051.072-.144.103l-.035-.09a8.016 8.016 0 0 0-1.603-2.573 16.398 16.398 0 0 1-.331-.368c.074-.136.166-.24.272-.352l.101-.108.05-.053c.061-.066.12-.134.179-.202.091-.103.187-.194.293-.283.079-.068.155-.139.231-.21.2-.19.407-.371.624-.542l.102-.083c.936-.754 1.496-.992 2.523-.261"/><path fill="#B4D0A3" d="M15.469 25h.75l.002.52.001.177.001.255v.079c0 .159-.007.312-.035.469-.115.107-.225.105-.377.102l-.114-.001c-.103-.007-.103-.007-.228-.038z"/></svg>