<svg xmlns="http://www.w3.org/2000/svg" viewBox="0 0 1024 1024"><path fill="#60A569" d="M621 256c14.455 9.102 23.653 27.7 32 42l1.31 2.231a316 316 0 0 1 13.815 26.457l1.184 2.501c2.12 4.71 3.525 8.547 2.691 13.811-3.059 3.719-8.679 4.734-13.125 6.188C630.266 358.944 605.061 374.496 582 394l-2.328 1.957c-21.518 18.706-52.417 51.615-55.91 81.05-.244 6.944 1.238 13.364 5.746 18.817 7.077 6.535 14.708 8.957 24.273 8.621 7.757-1.073 12.887-4.57 17.78-10.49 2.312-3.141 3.983-6.52 5.689-10.017 20.73-40.612 60.226-71.93 102.762-87.125 2.829-.77 5.077-.986 7.988-.813 4.95 8.61 4.214 18.163 4.24 27.824.01 2.144.04 4.286.072 6.43.195 25-6.345 56.286-23.812 75.058-5.665 5.197-12.053 9.458-18.375 13.805-8.994 6.216-17.066 13.518-25.125 20.883l-2.836 2.52C609.813 553.59 598.93 565.724 589 579l-1.562 2.078C569.972 604.422 555.46 629.748 545 657l-1.179 3.047c-9.506 24.842-16.52 50.192-20.354 76.539-.616 3.185-1.576 6.295-2.467 9.414h-27c-1.58-3.95-2.417-6.754-3.043-10.848l-.554-3.48-.59-3.735c-5.167-31.08-13.775-60.629-27.433-89.048a620 620 0 0 1-3.954-8.467c-12.106-26.197-27.932-49.053-47.473-70.281-1.753-1.922-3.415-3.892-5.078-5.891-12.038-13.793-26.81-25.636-41.562-36.375C353.98 510.33 344.893 503.68 339 492l-1.262-2.375C317.992 449.758 322.267 400.912 336 360c16.712-48.897 16.712-48.897 33-66 18.39 6.53 31.364 36.104 39.438 52.688 9.177 19.527 16.395 40.273 20.914 61.363.65 2.956 1.38 5.885 2.117 8.82 4.002 17.153 3.923 33.92 3.523 51.44l-.054 2.955q-.053 2.753-.15 5.504c-.155 8.009 1.788 14.668 7.372 20.62 6.778 5.93 13.547 7.397 22.438 7.02 7.03-.847 12.324-2.884 17.34-7.973 5.583-7.195 6.12-15.418 6.875-24.187 3.294-37.708 14.26-75.984 32.155-109.327q1.065-1.985 2.107-3.983c6.962-13.337 15.202-25.695 23.925-37.94l1.422-1.997c5.855-8.123 12.47-15.367 19.379-22.593a118 118 0 0 0 5.898-6.652c1.855-2.223 3.606-4.084 5.801-5.945l2.082-1.774L584 280l2.95-2.54c26.487-22.745 26.487-22.745 34.05-21.46"/><path fill="#4A9960" d="m850.313 506.625 2.875-.08c5.9-.014 11.095.635 15.812 4.455 3.15 4.028 3.429 7.61 3.363 12.555l.005 2.21c-.002 2.37-.027 4.74-.056 7.11l-.017 2.462c-.483 64.918-18.312 130.028-55.723 183.418a1116 1116 0 0 0-4.244 6.112C795.248 749.421 774.021 770.301 750 788l-2.115 1.568c-10.157 7.492-20.663 14.091-31.698 20.215a474 474 0 0 0-5.808 3.295c-24.593 13.734-51.588 22.915-78.817 29.735l-2.285.573c-37.898 9.441-37.898 9.441-54.277 7.614-2.244-3.366-2.245-4.456-2.227-8.39v-3.336l.032-3.598.008-3.687c.011-3.892.037-7.784.062-11.677q.016-3.954.027-7.908.034-9.702.098-19.404l2.908-.911c20.147-6.35 39.385-13.145 58.092-23.089.842-.44 1.684-.882 2.55-1.336 18.542-9.759 36.59-21.23 51.196-36.375 1.97-2 3.976-3.806 6.129-5.601 13.564-11.678 33.417-31.747 35.371-49.985.401-7.829-1.631-14.453-6.558-20.578-6.697-5.295-13.657-8.66-22.317-8.441-8.434 1.125-13.583 5.846-18.766 12.296a713 713 0 0 0-2.418 3.207q-1.33 1.745-2.664 3.489a805 805 0 0 0-4.421 5.867C662.996 683.412 651.882 693.948 640 703l-2.418 1.898C620.532 717.852 599.409 731.282 578 735c7.004-56.911 37.366-108.876 76-150l1.86-1.988c4.125-4.273 8.648-7.989 13.277-11.703a246 246 0 0 0 5.383-4.461c48.108-40.867 113.532-59.249 175.793-60.223M262 523l2.151.705c36.053 12 68.315 33.405 95.849 59.295l1.844 1.719c4.282 4.126 7.994 8.645 11.71 13.281 2.093 2.567 4.248 5.058 6.438 7.542 26.083 29.872 41.373 68.127 51.82 105.895l.917 3.268c1.823 6.769 2.89 13.294 3.271 20.295-5.8-.601-10.708-2.76-16-5.062l-2.826-1.225c-32.503-14.334-60.144-38.683-80.807-67.354-5.395-7.406-9.473-11.394-18.367-14.359-7.76-.968-14.736.86-21.047 5.508-5.257 4.83-8.4 10.275-9.332 17.383-.65 16.362 10.371 29.686 20.897 41.273 1.97 2.108 3.97 4.186 5.978 6.258a202 202 0 0 1 4.54 4.953c6.185 6.92 12.578 12.958 19.964 18.625l3.086 2.457c7.649 6.06 15.602 11.439 23.914 16.543l1.904 1.187c22.105 13.726 45.264 22.988 70.204 30.182C440 792 440 792 441 793c.902 6.455 1.185 12.816 1.238 19.328l.025 2.885q.02 2.995.032 5.99.017 3.058.062 6.115c.042 2.962.059 5.923.069 8.885l.053 2.753c-.014 4.103-.169 6.488-2.201 10.128-3.443 2.896-5.761 2.427-10.093 2.222-5.818-.559-11.553-1.432-17.31-2.431l-1.967-.335C397.79 846.294 384.86 843.429 372 840l-2.612-.69C326.538 827.792 285.907 806.505 252 778q-1.607-1.327-3.215-2.652c-9.774-8.101-18.588-16.631-26.515-26.586-2.258-2.747-4.636-5.308-7.083-7.887C193.68 717.433 177.384 686.433 166 657l-.83-2.14c-8.486-22.45-13.96-47.128-17.17-70.86l-.449-3.297c-2.027-15.569-2.864-31.018-2.988-46.703l-.037-2.45c-.03-2.308-.03-4.616-.022-6.925l-.034-2.07c.071-4.946 1.485-7.72 4.53-11.555 20.555-18.628 90.69 4.578 113 12"/><path fill="#67A96D" d="M543 183a453 453 0 0 1 12 9l1.731 1.333C577.85 209.613 577.85 209.613 580 216c-5.298 5.004-10.88 9.45-16.75 13.75-7.017 5.17-13.403 10.76-19.694 16.78-2.091 1.976-4.232 3.893-6.372 5.815-5.107 4.602-9.797 9.357-14.184 14.655l-3.842 4.477c-6.27 7.34-12.295 14.855-18.158 22.523l-2.387 3.082c-7.207 9.66-13.06 20.078-19 30.55-.594 1.047-1.19 2.092-1.802 3.17q-1.875 3.31-3.72 6.638l-1.86 3.302-1.664 2.988C469 346 469 346 466 347l-1.11-2.875c-12.092-30.683-28.775-58.24-51.296-82.348-3.606-3.86-7.102-7.814-10.594-11.777 2.364-4.357 5.302-7.688 8.688-11.25l3.246-3.46 1.593-1.7c1.957-2.112 3.84-4.286 5.723-6.465 2.925-3.307 5.994-6.209 9.363-9.055 2.52-2.186 4.95-4.45 7.38-6.736C445.45 205.266 452.05 199.502 459 194q1.634-1.32 3.266-2.645C492.213 167.243 510.129 159.631 543 183"/><path fill="#B4D0A3" d="M495 800h24q.036 8.325.055 16.65.008 2.828.02 5.657.018 4.08.023 8.162l.015 2.526c0 5.09-.222 9.986-1.113 15.005-3.669 3.432-7.195 3.354-12.062 3.25-1.208-.015-2.416-.03-3.66-.047C499 851 499 851 495 850z"/></svg>